<svg width="127" height="37" viewBox="0 0 127 37" fill="none" xmlns="http://www.w3.org/2000/svg">
<path d="M3.8464 10.2043C1.74609 10.1899 0.0323836 11.8834 0.0208434 13.9837C0.00641827 16.084 1.69993 17.7977 3.80023 17.8093C5.90054 17.8237 7.61425 16.1302 7.62579 14.0299C7.62579 14.0154 7.62579 13.9981 7.62579 13.9837C7.62002 11.8978 5.93227 10.2101 3.8464 10.2043Z" fill="white"/>
<path d="M3.8463 0C1.75177 0 0.0496023 1.68486 0.020752 3.77939C0.0467172 5.88258 1.74312 7.58186 3.8463 7.60494C5.94084 7.57609 7.62281 5.87392 7.62569 3.77939C7.61993 1.69351 5.93218 0.00577006 3.8463 0Z" fill="white"/>
<path d="M3.8461 20.5502C1.7458 20.5271 0.023437 22.2119 0.000356788 24.3122C-0.0227235 26.4125 1.65925 28.1349 3.75955 28.158C3.7884 28.158 3.81725 28.158 3.8461 28.158C5.94641 28.1349 7.63127 26.4125 7.6053 24.3122C7.58222 22.2466 5.91179 20.5761 3.8461 20.553" fill="white"/>
<path d="M19.3909 7.55878V0H17.2646V5.38635H13.0121V7.56167H19.3909V7.55878Z" fill="white"/>
<path d="M20.0975 0V7.55878H26.3811V5.38347H22.1286V0H20.0975Z" fill="white"/>
<path d="M23.0749 22.3475C22.4431 21.7849 22.0969 20.9684 22.1286 20.1231V10.2996H26.3811V8.2685H20.0975V20.1231C20.0975 20.1231 20.0975 22.6273 21.7997 24.1852C22.8874 25.1777 23.926 25.4604 26.3811 25.4604L33.8938 25.4114V5.38635H31.8627V23.2909H25.2935C24.4482 23.3226 23.6346 22.9764 23.072 22.3475" fill="white"/>
<path d="M34.6007 5.38635V12.1893C34.9181 11.4795 35.348 10.8246 35.8759 10.2534C37.7656 8.2685 40.7891 7.22989 44.8513 7.22989H50.9473C53.1775 7.26162 55.3153 8.12136 56.9482 9.63889C58.6504 11.292 59.4986 13.701 59.4986 16.7736V25.42H75.1354C75.1845 25.4691 78.159 25.6104 79.8121 23.9544C80.6487 23.0485 81.044 21.8224 80.8997 20.5991C80.8565 19.8404 80.5189 19.1278 79.9534 18.6142C79.0071 17.717 76.9299 16.6784 72.3485 16.9611C72.1581 16.9611 68.6643 17.1025 66.8669 15.0252C65.9091 13.8106 65.6091 12.2037 66.0649 10.7265C66.916 7.60783 71.2147 7.8444 71.2147 7.8444H88.5537V17.2467C88.5537 17.3448 88.271 23.4322 92.711 24.8055C95.4518 25.7056 98.4003 25.7547 101.17 24.9469V7.60494H118.457C118.598 7.60494 121.905 7.65399 123.607 9.49464C124.409 10.3919 124.931 12.7547 124.08 14.5983C123.561 15.7782 122.286 17.1977 119.213 17.1977H113.12C113.12 17.1977 111.135 17.3881 110.001 18.7094C109.462 19.4076 109.222 20.2904 109.34 21.1675C109.329 22.1368 109.701 23.0716 110.379 23.7669C111.559 24.9469 113.544 25.5152 116.331 25.4691H126.489V23.2937H114.444C111.279 23.2937 111.279 21.6868 111.279 21.1675C111.279 19.8923 112.367 19.2316 114.444 19.2316H118.503C121.905 19.2316 124.55 17.8612 125.872 15.357C126.348 14.3559 126.573 13.2538 126.532 12.1431C126.538 11.2055 126.31 10.2794 125.872 9.45136C125.471 8.59739 124.87 7.85305 124.123 7.27605C122.513 6.03548 120.534 5.37193 118.5 5.39212H99.1302V23.2966H95.7288C94.3209 23.3486 92.9649 22.7571 92.0446 21.6897C91.1474 20.5558 90.7204 18.9489 90.7204 16.9178V5.38635H71.6821C69.6625 5.36039 67.6949 6.02683 66.1082 7.27605C65.3465 7.85017 64.732 8.59451 64.3137 9.45136C63.8896 10.2851 63.679 11.2083 63.6992 12.1431C63.6444 13.2481 63.855 14.3501 64.3137 15.357C65.6841 17.8612 68.2344 19.2316 71.6821 19.2316H75.7442C77.8214 19.2316 78.9091 19.8923 78.9091 21.1675C78.9091 21.6868 78.9091 23.2937 75.7442 23.2937H61.5239V15.2128C61.5441 13.8972 61.2844 12.596 60.768 11.3872C60.2718 10.2447 59.5678 9.20325 58.6908 8.31754C56.7059 6.28648 54.0603 5.4354 50.0934 5.4354H45.7456C44.2339 5.4354 39.3668 5.57676 36.7212 7.22989V5.38924H34.595L34.6007 5.38635Z" fill="white"/>
<path d="M91.6234 27.353C93.0169 27.9214 94.5113 28.1954 96.0173 28.155H99.136V28.3916C99.1274 29.2283 98.7869 30.0274 98.1898 30.6131C97.6099 31.2161 96.8078 31.5594 95.9683 31.5594H88.7874V33.8732H95.6365C95.8731 33.8732 101.259 33.6828 101.164 28.1579V25.6537C99.8371 25.9913 98.4725 26.1673 97.1021 26.173C95.5499 26.1528 94.0065 25.9134 92.5207 25.4633C87.5613 23.9516 87.844 17.29 87.844 17.2439V8.5051H71.1685C71.1685 8.5051 66.9651 8.45605 66.6794 11.292C66.6794 11.292 66.3477 13.3231 67.3892 14.5983C68.9471 16.4418 72.2562 16.3005 72.3024 16.3005C76.177 16.0639 78.9149 16.6784 80.4266 18.144C81.1248 18.7729 81.5316 19.6615 81.5604 20.602C81.7076 22.0013 81.2431 23.3976 80.2852 24.4276C78.4417 26.2711 75.2307 26.1298 75.1355 26.1298H48.1575C43.5271 25.7518 43.7175 21.2165 43.7175 21.1704C43.7636 16.2081 49.1038 16.2081 49.15 16.2081H58.7889C58.6908 13.6087 57.9378 11.5777 56.4751 10.1149C54.2074 7.89635 50.9964 7.9454 50.9474 7.9454H44.8542C41.0286 7.9454 38.1465 8.84265 36.3953 10.7323C35.2788 11.8892 34.6354 13.4241 34.6008 15.031V26.1326H26.4304C23.6434 26.2307 22.4144 25.6595 21.3267 24.667C19.437 22.9187 19.3909 20.2241 19.3909 20.1289V8.26852H13.0121V10.2996H17.2646V20.1289C17.2531 21.2137 17.4637 22.2927 17.8791 23.2938C18.2657 24.266 18.8427 25.1488 19.5813 25.8932C20.3228 26.6202 21.2085 27.1828 22.1807 27.5463C23.1645 27.9675 24.2291 28.1752 25.2994 28.1608H36.7299V15.9254C36.7299 12.5701 39.8948 10.2563 44.3839 10.2563H51.0454C51.9427 10.2621 52.8371 10.4063 53.691 10.6804C54.2767 10.9141 54.8075 11.269 55.2489 11.719C55.7163 12.1575 56.0856 12.6884 56.3366 13.2769C56.4693 13.6289 56.5645 13.9924 56.6193 14.3646H49.5799C44.808 14.3646 42.9183 16.4909 42.2115 18.2854C41.7903 19.2865 41.5826 20.3655 41.597 21.4502C41.597 26.3634 46.3688 28.1579 49.6289 28.1579H75.7557C80.8103 28.1579 82.7 25.0883 83.1241 24.142C83.9233 22.2552 83.9233 20.1231 83.1241 18.2363C82.5558 17.1486 80.9978 14.3617 75.7557 14.3617H71.6907C69.1865 14.3617 68.5259 13.0865 68.5259 12.3768C68.5259 11.8575 68.5259 10.2505 71.6907 10.2505H85.8649V16.9121C85.8332 18.4902 86.0265 20.0654 86.4332 21.5887C86.8256 22.8726 87.5036 24.0525 88.4153 25.0363C89.3356 25.997 90.4261 26.7818 91.6292 27.3501" fill="white"/>
<path d="M116.333 26.1269H115.909C113.169 26.1269 111.138 25.5123 109.909 24.191C109.095 23.3976 108.648 22.3013 108.679 21.1675C108.504 20.126 108.818 19.0643 109.531 18.2853C110.806 16.7274 113.027 16.537 113.122 16.537H119.028C121.25 16.5861 122.807 15.8273 123.468 14.3617C124.224 12.7547 123.751 10.6775 123.09 9.96779C121.578 8.31467 118.509 8.26562 118.46 8.26562H101.83V28.1089C101.972 34.3434 95.6882 34.5338 95.6449 34.5338H88.793V36.4235H95.9738C97.0413 36.412 98.1001 36.2043 99.0925 35.809C100.053 35.3993 100.933 34.8252 101.692 34.1069C102.407 33.3481 102.984 32.4682 103.394 31.5074C103.789 30.515 103.997 29.4591 104.009 28.3887V10.2476H118.512C121.677 10.2476 121.677 11.8546 121.677 12.3739C121.677 13.0836 121.016 14.3588 118.512 14.3588H114.45C109.158 14.3588 107.647 17.1458 107.081 18.2334C106.262 20.1145 106.245 22.2465 107.032 24.1391C107.505 25.0854 109.395 28.155 114.45 28.155H126.497V26.124H116.339L116.333 26.1269Z" fill="white"/>
<path d="M51.657 25.4632L58.8378 25.4142V16.912H51.657V19.2258H56.7116V23.2879H51.657V25.4603V25.4632ZM44.3809 21.2107C44.3809 21.9666 44.7127 25.0853 48.2065 25.4632H51.6541V23.2879H49.623C46.9313 23.2879 46.5995 22.1541 46.5995 21.1616C46.5995 19.8865 47.592 19.2258 49.623 19.2258H51.6541V16.912H49.1499C48.9595 16.912 44.3781 17.0534 44.3781 21.2107" fill="white"/>
<path d="M13.2256 32.0989H16.3876V32.6355H15.1211V36.1812H14.5008V32.6355H13.2285V32.0989H13.2256Z" fill="white"/>
<path d="M19.0562 32.0988H20.5103C21.4566 32.0988 21.924 32.6297 21.924 33.3769C21.924 33.9251 21.6758 34.3434 21.1796 34.5251L22.0797 36.1754H21.3758L20.5478 34.6377H19.6736V36.1754H19.0533V32.0959L19.0562 32.0988ZM20.4468 34.1039C21.0498 34.1039 21.2979 33.8385 21.2979 33.3769C21.2979 32.9153 21.0498 32.6268 20.4468 32.6268H19.6736V34.1039H20.4468Z" fill="white"/>
<path d="M24.3386 36.1783L25.8042 32.0989H26.5197L27.991 36.1783H27.3304L26.9582 35.1022H25.3685L24.9964 36.1783H24.3357H24.3386ZM26.7764 34.5829L26.1735 32.8403H26.1446L25.5474 34.5829H26.7764Z" fill="white"/>
<path d="M30.5444 32.0989H33.0746V32.6355H31.1647V33.8703H32.8957V34.4011H31.1647V36.1812H30.5444V32.1018V32.0989Z" fill="white"/>
<path d="M35.8038 32.0989H38.334V32.6355H36.4241V33.8703H38.1551V34.4011H36.4241V36.1812H35.8038V32.1018V32.0989Z" fill="white"/>
<path d="M41.6834 36.1783H41.0631V32.0989H41.6834V36.1783Z" fill="white"/>
<path d="M46.2561 32.6124C45.5522 32.6124 45.0271 33.1548 45.0271 34.1386C45.0271 35.1224 45.558 35.6647 46.2561 35.6647C46.7697 35.6647 47.2024 35.3762 47.3092 34.8598L47.9352 34.8656C47.8054 35.6705 47.1476 36.236 46.2504 36.236C45.1858 36.236 44.4126 35.4426 44.4126 34.1386C44.4126 32.8345 45.1916 32.0411 46.2504 32.0411C47.113 32.0411 47.7939 32.5489 47.9352 33.426H47.3092C47.2082 32.9009 46.7726 32.6095 46.2561 32.6095V32.6124Z" fill="white"/>
<path d="M55.468 32.5778C54.966 32.5778 54.6515 32.8317 54.6515 33.1808C54.6515 33.5702 55.0727 33.7174 55.3958 33.7953L55.7911 33.902C56.3162 34.0261 56.9624 34.3146 56.9682 35.0503C56.9624 35.7369 56.4172 36.2447 55.4536 36.2447C54.5419 36.2447 53.9649 35.7888 53.9274 35.0445H54.5477C54.588 35.4888 54.9746 35.7052 55.4536 35.7052C55.9729 35.7052 56.3508 35.4397 56.3537 35.0416C56.3479 34.6868 56.0161 34.5396 55.5805 34.4271L55.0958 34.2973C54.4409 34.1184 54.0312 33.7837 54.0312 33.2154C54.0312 32.5114 54.6631 32.0441 55.4853 32.0441C56.3075 32.0441 56.8932 32.5172 56.9105 33.1779H56.3075C56.2671 32.7999 55.9353 32.5807 55.468 32.5807V32.5778Z" fill="white"/>
<path d="M60.0583 32.0989L61.1171 33.9482H61.1632L62.2278 32.0989H62.9318L61.4489 34.5771V36.1783H60.8286V34.5771L59.3514 32.0989H60.0554H60.0583Z" fill="white"/>
<path d="M66.861 32.5778C66.359 32.5778 66.0446 32.8317 66.0446 33.1808C66.0446 33.5702 66.4658 33.7174 66.7889 33.7953L67.1842 33.902C67.7092 34.0261 68.3555 34.3146 68.3613 35.0503C68.3555 35.7369 67.8102 36.2447 66.8466 36.2447C65.9349 36.2447 65.3579 35.7888 65.3204 35.0445H65.9407C65.9811 35.4888 66.3677 35.7052 66.8466 35.7052C67.3659 35.7052 67.7439 35.4397 67.7467 35.0416C67.741 34.6868 67.4092 34.5396 66.9736 34.4271L66.4889 34.2973C65.834 34.1184 65.4243 33.7837 65.4243 33.2154C65.4243 32.5114 66.0561 32.0441 66.8783 32.0441C67.7006 32.0441 68.2862 32.5172 68.3036 33.1779H67.7006C67.6602 32.7999 67.3284 32.5807 66.861 32.5807V32.5778Z" fill="white"/>
<path d="M70.8596 32.0989H74.0216V32.6355H72.7551V36.1812H72.1348V32.6355H70.8625V32.0989H70.8596Z" fill="white"/>
<path d="M76.6904 32.0989H79.2495V32.6355H77.3107V33.8703H79.1139V34.4011H77.3107V35.6475H79.2725V36.1841H76.6904V32.1046V32.0989Z" fill="white"/>
<path d="M82.8009 32.0989L84.0905 35.2609H84.1425L85.4321 32.0989H86.1879V36.1783H85.5965V33.2327H85.5561L84.3617 36.1754H83.8713L82.6711 33.2298H82.6365V36.1812H82.045V32.1018H82.8009V32.0989Z" fill="white"/>
</svg>
